<svg width="30" height="30" viewBox="0 0 30 30" fill="none" xmlns="http://www.w3.org/2000/svg">
<path d="M29.8536 8.85464C29.8354 7.59563 29.6025 6.3466 29.1568 5.16909C28.3768 3.15833 26.7885 1.56836 24.7777 0.789999C23.6152 0.352589 22.3861 0.118084 21.142 0.0914737C19.5421 0.019958 19.0348 0 14.9734 0C10.912 0 10.3914 1.11523e-07 8.80308 0.0914737C7.56071 0.118084 6.33163 0.352589 5.16909 0.789999C3.15833 1.56836 1.56836 3.15833 0.789999 5.16909C0.352589 6.33163 0.116421 7.56071 0.0931367 8.80308C0.021621 10.4047 0 10.912 0 14.9734C0 19.0348 -1.23915e-08 19.5537 0.0931367 21.1437C0.118084 22.3877 0.352589 23.6151 0.789999 24.781C1.57002 26.7901 3.15833 28.3801 5.17075 29.1584C6.32831 29.6108 7.55738 29.8669 8.80475 29.9069C10.4064 29.9784 10.9136 30 14.9751 30C19.0365 30 19.5571 30 21.1454 29.9069C22.3877 29.8819 23.6168 29.6474 24.781 29.21C26.7918 28.43 28.3801 26.84 29.1601 24.8309C29.5975 23.6667 29.832 22.4393 29.857 21.1936C29.9285 19.5936 29.9501 19.0864 29.9501 15.0233C29.9468 10.9619 29.9468 10.4463 29.8536 8.85464ZM14.9634 22.6538C10.7157 22.6538 7.27464 19.2128 7.27464 14.9651C7.27464 10.7174 10.7157 7.27631 14.9634 7.27631C19.2078 7.27631 22.6522 10.7174 22.6522 14.9651C22.6522 19.2128 19.2078 22.6538 14.9634 22.6538ZM22.9582 8.78479C21.9653 8.78479 21.1653 7.98315 21.1653 6.99191C21.1653 6.00067 21.9653 5.19902 22.9582 5.19902C23.9478 5.19902 24.7494 6.00067 24.7494 6.99191C24.7494 7.98315 23.9478 8.78479 22.9582 8.78479Z" fill="white"/>
<path d="M14.9632 19.9596C17.7216 19.9596 19.9577 17.7235 19.9577 14.9652C19.9577 12.2068 17.7216 9.9707 14.9632 9.9707C12.2048 9.9707 9.96875 12.2068 9.96875 14.9652C9.96875 17.7235 12.2048 19.9596 14.9632 19.9596Z" fill="white"/>
</svg>
